<svg [style.height]="height" viewBox="0 0 2883 2203" fill="none" xmlns="http://www.w3.org/2000/svg">
    <path #logo id="logo" fill-rule="evenodd" clip-rule="evenodd"
        d="M1176.36 1.571C1175.5 2.436 1174.78 3.448 1174.78 3.821C1174.78 4.195 1173.65 31.95 1172.29 65.5C1170.92 99.05 1168.91 149 1167.82 176.5C1166.73 204 1165.57 231.45 1165.23 237.5L1164.62 248.5L1160.96 248.513C1158.94 248.521 1156.39 248.836 1155.29 249.213C1153.74 249.744 1152.83 249.177 1151.28 246.711C1147.95 241.446 1142.79 242.221 1142.79 247.985V250.726L1132.04 251.888C1126.13 252.528 1118.59 253.323 1115.29 253.655L1109.29 254.258L1113.54 250.283C1118.18 245.937 1118.26 245.756 1116.75 242.934C1114.93 239.525 1111.45 240.778 1100.96 248.617C1091.14 255.951 1090.5 256.265 1083.53 257.073C1071.33 258.487 1071.09 258.443 1069.81 254.562C1068.16 249.553 1065.02 246 1062.25 246C1058.4 246 1057.47 249.089 1059.72 254.346C1061.86 259.333 1061.4 260 1055.86 260C1053.6 260 1052.76 259.268 1051.3 256.03C1049.01 250.945 1046.56 248.754 1043.62 249.17C1040.67 249.588 1040.03 253.624 1042.23 257.888L1043.79 260.909L1040.54 261.444C1035.49 262.276 1017.52 264.074 1017.29 263.771C1017.17 263.622 1016.33 257.005 1015.4 249.066C1014.48 241.128 1013.24 234.04 1012.64 233.316C1010.97 231.309 1007 231.728 1005.77 234.042C1004.96 235.552 1005.08 239.41 1006.23 248.833C1008.34 266.106 1008.65 264.696 1002.54 265.521C995.748 266.438 993.788 267.534 993.788 270.413C993.788 274.137 996.055 275.234 1002.96 274.848L1009.18 274.5L1014.24 317.598C1017.58 346.118 1019.75 361.255 1020.66 362.348C1023.43 365.676 1027.76 363.681 1027.82 359.05C1027.84 357.647 1025.73 337.952 1023.13 315.283C1020.52 292.613 1018.62 273.837 1018.9 273.559C1019.72 272.74 1047.96 269.837 1048.63 270.504C1048.96 270.838 1050.82 273.852 1052.76 277.201C1056.86 284.285 1058.97 286.006 1061.54 284.393C1064.21 282.72 1064.16 279.667 1061.38 274.19L1058.86 269.214L1061.08 268.621C1065.46 267.444 1066.45 268.002 1068.79 272.999C1072.02 279.897 1074.09 281.641 1077.29 280.18C1078.67 279.555 1079.79 278.22 1079.79 277.214C1079.79 275.717 1087.98 268.776 1093.34 265.724C1094.44 265.102 1131.05 261 1135.5 261C1137.6 261 1137.83 261.248 1136.83 262.452C1135.14 264.489 1136.48 267.884 1139.25 268.579C1140.8 268.969 1142.96 268.283 1145.77 266.509C1148.09 265.05 1150.1 264.001 1150.25 264.178C1151.03 265.106 1152.79 268.99 1152.79 269.775C1152.79 270.274 1149.9 272.092 1146.36 273.814C1139.12 277.346 1138.36 278.154 1139.18 281.437C1140.11 285.145 1143.52 285.274 1150.71 281.874C1156.82 278.986 1157.25 278.916 1158.48 280.6C1160.68 283.598 1159.99 284.863 1154.73 287.53C1150.07 289.892 1149.69 290.348 1149.98 293.297C1150.23 295.933 1150.76 296.555 1152.97 296.81C1154.45 296.981 1157.08 296.385 1158.82 295.486C1160.55 294.588 1162.2 294.081 1162.48 294.36C1163.2 295.078 1158.71 404.352 1157.93 405.187C1157.58 405.565 1138.24 411.274 1114.97 417.874C1091.69 424.473 1072 430.406 1071.22 431.059C1069.32 432.632 1069.45 437.013 1072.15 463.25C1074.53 486.447 1074.62 485.832 1069.19 484.047C1067.59 483.522 1018.24 468.213 959.506 450.026C900.777 431.839 850.935 416.242 848.747 415.367C846.56 414.492 843.537 413.998 842.029 414.269C840.521 414.54 728.363 451.889 592.788 497.268C457.213 542.646 281.938 601.266 203.288 627.535C124.638 653.804 59.6782 675.856 58.9322 676.54C57.8742 677.51 57.0532 690.656 55.2102 736.142C51.0312 839.229 39.2392 1131.34 26.7952 1440C24.5892 1494.72 22.1082 1556.15 21.2832 1576.5C19.4872 1620.79 15.0652 1730.1 6.25418 1948C2.66218 2036.82 -0.14981 2111.3 0.00618993 2113.5L0.288172 2117.5L5.78817 2117.36C10.3662 2117.24 810.855 2200.81 821.887 2202.55C825.061 2203.06 840.563 2196.43 953.215 2146.43L1080.94 2089.73L1087.12 2090.32C1090.51 2090.64 1139.19 2095.89 1195.29 2101.99C1303.03 2113.69 1412.21 2125.52 1541.79 2139.53C1584.96 2144.2 1630.64 2149.15 1643.29 2150.54C1655.94 2151.92 1667.32 2153.58 1668.59 2154.22C1671.41 2155.65 1669.6 2155.86 1760.29 2144.05C1798.79 2139.03 1854.59 2131.78 1884.29 2127.94C1977.17 2115.91 2296.38 2074.49 2324.53 2070.81C2329.06 2070.22 2333.46 2069.23 2334.31 2068.61C2335.42 2067.8 2336.11 2064.32 2336.83 2055.99C2337.37 2049.67 2339.15 1971.6 2340.79 1882.5C2342.43 1793.4 2344.06 1712.96 2344.4 1703.75L2345.02 1687H2395.32H2445.61L2446.16 1690.75C2446.46 1692.81 2446.96 1741.97 2447.25 1800C2447.55 1858.03 2448.06 1938.12 2448.38 1978C2449.03 2057.51 2448.81 2055 2454.83 2055C2460.5 2055 2877.99 1998.96 2879.89 1997.95C2880.93 1997.39 2881.83 1996.16 2881.87 1995.22C2882.12 1990.24 2881.6 1882.5 2880.78 1770C2880.28 1699.88 2879.59 1590.3 2879.25 1526.5C2878.92 1462.7 2878.47 1409.15 2878.25 1407.5C2878.03 1405.85 2878.28 1365.58 2878.81 1318C2879.34 1270.42 2880.49 1121.34 2881.36 986.7C2882.75 773.094 2882.77 741.619 2881.51 739.7C2880.48 738.137 2870.54 733.677 2847.17 724.296C2829.09 717.034 2792.91 702.488 2766.79 691.971C2740.66 681.454 2688.46 660.463 2650.79 645.323C2613.11 630.183 2567.66 611.917 2549.79 604.731C2531.91 597.546 2516.96 591.389 2516.56 591.05C2516.15 590.711 2517.65 544.998 2519.89 489.467C2523.33 404.151 2523.76 388.134 2522.63 386.136C2521.66 384.428 2511.01 378.847 2484.29 366.043C2463.94 356.292 2431.54 340.755 2412.29 331.516C2393.04 322.277 2371.89 312.138 2365.29 308.986C2345.29 299.433 2276.45 266.381 2257.39 257.176L2239.48 248.532L2004.89 266.644L1770.29 284.756L1733.39 270.805C1713.1 263.132 1695.47 256.183 1694.22 255.362C1692.1 253.972 1675.88 258.437 1455.62 321.053C1325.64 358.004 1207.81 391.495 1193.79 395.479C1179.76 399.463 1168.15 402.61 1167.98 402.472C1167.81 402.335 1168.38 385.93 1169.23 366.018C1170.09 346.105 1170.79 328.264 1170.79 326.371C1170.79 323.171 1170.94 323.01 1172.91 324.068C1174.43 324.879 1175.7 324.904 1177.35 324.155C1179.4 323.221 1179.88 323.492 1181.72 326.61C1182.86 328.537 1183.79 330.304 1183.79 330.537C1183.79 330.769 1181.96 331.892 1179.73 333.031C1176.35 334.755 1175.72 335.54 1175.98 337.701C1176.15 339.129 1177.06 340.784 1178.01 341.378C1179.68 342.423 1180.52 342.253 1186.86 339.584C1187.95 339.128 1188.8 339.724 1189.61 341.508C1191.29 345.189 1191.18 345.441 1187.23 347.328C1184.09 348.825 1183.7 349.413 1183.98 352.264C1184.38 356.5 1187.1 356.912 1194.63 353.885C1206.37 349.165 1210.27 346.694 1210.6 343.758C1211 340.3 1207.28 338.131 1203.98 339.897C1200.66 341.676 1199.25 341.202 1197.61 337.754L1196.08 334.508L1201.68 331.411C1207.5 328.195 1209.13 325.317 1206.74 322.445C1205.01 320.354 1201.85 320.715 1197.29 323.526C1195.09 324.881 1192.96 325.992 1192.56 325.995C1192.16 325.998 1190.92 324.224 1189.82 322.052C1187.87 318.237 1187.86 318.061 1189.64 316.802C1191.95 315.162 1193.66 311.889 1193.07 310.239C1192.21 307.848 1189.07 306.914 1186.24 308.206C1183.93 309.257 1183.38 309.165 1182.18 307.519C1180.09 304.667 1180.47 303.373 1183.8 301.995C1189.52 299.625 1188.15 291.874 1182.29 293.448C1181.19 293.743 1179.31 294.256 1178.11 294.589C1176.38 295.07 1175.6 294.537 1174.28 291.982C1173.09 289.673 1172.92 288.465 1173.7 287.685C1175.13 286.254 1175.1 281.308 1173.65 280.413C1172.84 279.911 1172.7 276.508 1173.18 268.657C1173.55 262.58 1174.02 257.432 1174.24 257.217C1174.45 257.002 1178.15 256.425 1182.46 255.934C1186.77 255.444 1192.13 254.825 1194.39 254.56L1198.49 254.079L1204.23 262.096C1209.54 269.506 1210.21 270.09 1213.13 269.806C1217.94 269.34 1217.87 265.971 1212.9 258.925L1208.83 253.155L1215.34 252.458L1221.84 251.761L1227.26 256.881C1232.58 261.92 1234.07 262.595 1237.21 261.393C1239.7 260.437 1239.13 255.671 1236.2 252.924L1233.61 250.5L1244.45 249.342L1255.29 248.184L1261.17 254.646C1265.94 259.89 1267.54 261.051 1269.67 260.804C1273.71 260.335 1273.78 255.82 1269.82 250.888C1268.1 248.75 1267.05 246.991 1267.49 246.98C1267.93 246.97 1274.14 246.299 1281.29 245.49C1288.44 244.682 1294.61 244.015 1295 244.01C1295.39 244.004 1296.64 247.146 1297.79 250.991C1299.51 256.768 1300.3 258.09 1302.34 258.603C1307.49 259.895 1309.02 255.752 1306.28 247.97C1305.45 245.615 1304.92 243.535 1305.11 243.348C1305.44 243.018 1360.7 237 1363.4 237C1364.42 237 1364.51 237.601 1363.76 239.565C1363.12 241.269 1363.14 242.781 1363.82 244.065C1364.99 246.244 1369.01 246.651 1370.58 244.75C1372.95 241.882 1379.88 222.547 1379.59 219.599C1379.33 216.889 1378.91 216.5 1376.29 216.5C1373.75 216.5 1372.95 217.171 1371.08 220.882C1369.86 223.292 1368.73 225.687 1368.55 226.203C1368.33 226.879 1308.38 233.965 1302.62 233.996C1302.25 233.998 1301.2 231.744 1300.28 228.987C1297.63 220.991 1294.24 218.855 1291.31 223.33C1289.97 225.373 1289.95 226.234 1291.19 230.33C1291.96 232.898 1292.3 235.024 1291.94 235.053C1291.58 235.082 1283.95 235.898 1274.98 236.867L1258.66 238.628L1254.55 233.718C1250.04 228.324 1247.21 226.753 1244.54 228.153C1242.04 229.461 1242.38 233.356 1245.28 236.805L1247.77 239.764L1236.23 241.007C1223.28 242.401 1225.62 243.172 1215.56 234.21C1210.43 229.638 1208.77 229.163 1206.36 231.571C1203.99 233.945 1204.44 235.849 1208.29 239.7C1210.21 241.625 1211.79 243.38 1211.79 243.6C1211.79 243.82 1209.64 244 1207.01 244H1202.24L1190.76 228.029C1184.45 219.245 1178.5 211.79 1177.54 211.462C1176.06 210.958 1175.79 209.589 1175.8 202.683C1175.82 192.208 1176.45 189.805 1179.07 190.198C1180.67 190.438 1181.59 192.243 1183.53 199C1186.32 208.733 1187.12 210 1190.43 210C1194.44 210 1195.21 206.539 1192.88 199.038C1191.77 195.489 1191.01 192.442 1191.19 192.266C1191.36 192.09 1195.73 192.632 1200.9 193.469C1206.06 194.307 1210.57 194.994 1210.92 194.996C1211.26 194.998 1212.1 198.712 1212.78 203.25C1214.14 212.303 1215.85 216 1218.69 216C1222.42 216 1223.21 213.488 1222.18 204.824L1221.23 196.769L1227.49 197.411C1230.94 197.764 1234.39 198.292 1235.15 198.584C1235.91 198.876 1237.15 201.451 1237.92 204.307C1239.25 209.308 1239.44 209.5 1242.8 209.5C1246.25 209.5 1246.29 209.447 1246.59 204.786C1246.89 200.085 1246.9 200.073 1250.09 200.602C1256.73 201.703 1257.32 202.063 1259.29 206.252C1260.66 209.164 1262.01 210.603 1263.59 210.827C1266.93 211.3 1269.07 209.145 1268.43 205.955C1267.96 203.605 1268.17 203.35 1270.23 203.744C1273.58 204.385 1276.79 202.352 1276.79 199.587C1276.79 196.064 1274.99 195.167 1264.95 193.681C1259.91 192.934 1255.67 192.138 1255.53 191.911C1255.4 191.685 1254.16 189.25 1252.79 186.5C1250.84 182.601 1249.7 181.432 1247.61 181.19C1244.13 180.788 1242.35 183.722 1243.79 187.5C1244.34 188.946 1244.79 190.264 1244.79 190.426C1244.79 190.589 1243.55 190.533 1242.04 190.301C1234.93 189.21 1235.06 189.316 1234.36 183.752C1234 180.854 1233.39 178.004 1233 177.418C1231.5 175.165 1228.74 175.046 1226.65 177.142C1224.91 178.881 1224.65 180.001 1225.16 183.697C1225.77 188.133 1225.76 188.152 1223.03 187.597C1219.85 186.948 1207.61 185.019 1206.61 185.008C1206.24 185.003 1205.62 182.413 1205.24 179.25C1204.35 171.981 1203.31 170 1200.38 170C1196.75 170 1195.47 172.349 1196.01 178.005C1196.41 182.12 1196.21 183 1194.89 183.001C1191.4 183.004 1176.79 180.661 1176.79 180.098C1176.79 179.35 1181.36 66.806 1182.85 30.841C1184.02 2.77 1183.74 0 1179.82 0C1178.78 0 1177.22 0.706999 1176.36 1.571ZM1174.57 234.211C1174.31 240.97 1174.23 246.667 1174.4 246.872C1174.92 247.517 1191.79 245.853 1191.75 245.16C1191.73 244.797 1187.96 239.42 1183.37 233.211L1175.04 221.922L1174.57 234.211ZM2013.79 275.044C1894.71 284.295 1795.71 292.007 1793.79 292.182C1790.99 292.436 1801.38 296.712 1845.29 313.387C1964.71 358.741 2085.08 404.488 2211.29 452.493C2226.14 458.141 2238.41 462.658 2238.56 462.529C2238.71 462.4 2237.92 419.148 2236.81 366.413C2235.7 313.677 2234.79 267.711 2234.79 264.265C2234.79 258.401 2234.64 258.007 2232.54 258.112C2231.3 258.173 2132.86 265.793 2013.79 275.044ZM2244.18 283.094C2244.54 295.417 2245.49 339.925 2246.29 382C2247.09 424.075 2248 461.738 2248.31 465.695C2248.82 472.372 2248.7 472.975 2246.66 474.067L2244.47 475.243L2245.13 680.872C2245.98 942.731 2246.01 1280.83 2245.18 1282.17C2244.84 1282.73 2243.14 1282.94 2241.42 1282.63C2235.92 1281.65 1948 1238.65 1809.79 1218.18L1676.29 1198.4L1676.04 1671.87C1675.9 1932.27 1675.9 2145.43 1676.04 2145.55C1676.18 2145.67 1692.94 2143.59 1713.29 2140.93C1757.11 2135.2 1879.24 2119.35 2247.03 2071.68C2290.89 2065.99 2327.04 2061.09 2327.35 2060.77C2327.66 2060.46 2328.98 2006.49 2330.28 1940.85C2331.59 1875.21 2332.9 1810.25 2333.21 1796.5C2333.52 1782.75 2334 1757.55 2334.29 1740.5C2335.1 1692.52 2335.69 1680.75 2337.4 1679C2338.66 1677.71 2346.74 1677.47 2396.31 1677.3C2450.58 1677.11 2453.82 1677.2 2454.73 1678.88C2455.31 1679.98 2456.12 1751.25 2456.82 1863.08C2457.44 1963.41 2458.03 2045.55 2458.12 2045.61C2458.21 2045.67 2551.61 2033.3 2665.67 2018.11L2873.05 1990.5L2872.41 1871.5C2872.06 1806.05 2871.56 1736.52 2871.29 1717C2871.02 1697.48 2870.57 1634.92 2870.29 1578C2869.8 1478.04 2868.8 1375.79 2868.31 1375.23C2868.1 1374.98 2599.92 1335.16 2539.79 1326.45C2526.31 1324.49 2513.85 1322.68 2512.09 1322.41C2508.86 1321.92 2508.53 1321.42 2507.28 1315.25C2506.83 1312.98 2507 1312 2507.87 1312C2508.85 1312 2508.97 1271.95 2508.44 1118.75C2508.07 1012.46 2507.76 843.6 2507.74 743.5L2507.7 561.5L2511.18 476.023C2513.1 429.01 2514.58 390.509 2514.48 390.465C2514.37 390.421 2500.34 383.695 2483.29 375.518C2466.24 367.342 2445.99 357.64 2438.29 353.958C2430.59 350.276 2412.81 341.746 2398.79 335.002C2384.76 328.258 2369.24 320.823 2364.29 318.479C2359.34 316.136 2330.76 302.425 2300.79 288.012C2270.81 273.598 2245.67 261.554 2244.91 261.247C2243.75 260.778 2243.64 264.276 2244.18 283.094ZM1660.79 272.012C1641.91 277.484 1379.76 352.016 1121.79 425.259C1098.41 431.896 1079.19 437.384 1079.08 437.454C1078.97 437.525 1080.07 449.858 1081.53 464.862C1084.36 493.861 1084.28 495.239 1079.69 495.787C1078.37 495.944 1043.31 485.527 1001.79 472.638C858.815 428.26 848.229 425 847.123 425C845.842 425 845.118 448.879 844.276 519C842.56 661.723 838.794 949.725 838.236 980.75C837.696 1010.85 837.815 1017 838.937 1016.99C839.68 1016.99 856.216 1014.52 875.683 1011.49C895.15 1008.47 911.184 1006 911.313 1006C911.442 1006 911.832 987.888 912.18 965.75C912.527 943.612 913.037 915.6 913.313 903.5C913.588 891.4 914.478 839.2 915.29 787.5C917.414 652.249 917.174 659.922 919.342 658.337C920.348 657.602 921.71 657 922.37 657C923.031 657 929.634 653.4 937.044 649C944.454 644.6 951.183 641 951.998 641C952.812 641 954.223 641.823 955.133 642.829C956.551 644.396 956.788 647.385 956.788 663.72C956.788 682.667 956.802 682.786 959.038 683.307C960.275 683.595 973.644 686.437 988.745 689.623C1008 693.683 1016.74 695.95 1018 697.207C1019.84 699.05 1019.88 701.027 1020.03 793C1020.07 815.864 1018.52 981.677 1018.24 984.75C1017.94 988.009 1018.2 989 1019.33 989C1020.95 989 1039.01 986.262 1042.41 985.501C1044.51 985.03 1044.54 984.662 1045.17 948.763C1045.52 928.818 1046.04 903.95 1046.31 893.5C1046.59 883.05 1047.5 833.775 1048.34 784C1049.17 734.225 1050.07 692.5 1050.34 691.279C1050.6 690.057 1051.67 688.599 1052.71 688.039C1054.59 687.037 1112.81 678 1117.39 678C1118.76 678 1120.39 678.99 1121.3 680.378C1122.69 682.506 1122.75 688.326 1121.85 735.628C1119.4 863.056 1117.6 973.144 1117.95 973.49C1118.34 973.888 1187.93 963.189 1188.48 962.647C1188.77 962.356 1189.89 926.067 1195.78 727.063C1197.95 653.661 1197.79 655.282 1203.09 652.937C1205.4 651.915 1281.96 648.095 1285.12 648.844C1286.13 649.082 1287.42 650.289 1287.98 651.524C1288.68 653.068 1288.38 699.727 1287 800.635C1285.9 881.411 1285.09 947.603 1285.21 947.73C1285.32 947.856 1287.41 947.608 1289.85 947.178C1293.44 946.546 1294.25 946.024 1294.06 944.448C1293.83 942.444 1295.31 839.184 1296.24 792C1296.53 777.425 1297.03 741.875 1297.36 713C1297.91 663.938 1298.57 650.815 1300.63 648.758C1301.09 648.3 1326.79 643 1357.75 636.981C1388.71 630.962 1414.75 625.466 1415.61 624.768C1416.48 624.071 1423.29 617.945 1430.74 611.155C1447.43 595.948 1448.03 595.523 1450.71 596.958C1451.84 597.563 1453.01 599.057 1453.32 600.279C1454.07 603.307 1446.15 941.053 1445.27 943.25C1444.85 944.31 1445.03 945 1445.73 945C1447.49 945 1635.54 979.967 1637.19 980.601C1639.46 981.47 1639.77 983.272 1640.41 998.862C1641.14 1016.63 1640.58 1018.69 1634.82 1019.61L1630.79 1020.26V1025.44C1630.79 1028.29 1630.12 1045.67 1629.3 1064.06C1628.48 1082.45 1626.91 1118.65 1625.82 1144.5C1624.73 1170.35 1623.56 1197.57 1623.21 1205C1622.56 1219.06 1621.42 1223 1617.97 1223C1616.99 1223 1615.74 1223.45 1615.19 1224C1614.64 1224.54 1594.19 1226.78 1569.74 1228.96C1527.43 1232.74 1331.71 1250.25 1150.29 1266.48C1104.09 1270.62 1064.14 1274 1061.51 1274C1058.88 1274 1041.78 1271.54 1023.51 1268.54C1005.24 1265.54 955.965 1257.44 914.015 1250.54C872.065 1243.64 837.113 1238 836.344 1238C835.576 1238 834.707 1239.24 834.413 1240.75C834.119 1242.26 833.631 1310.32 833.329 1392C833.026 1473.68 832.557 1560.98 832.287 1586C831.424 1665.92 829.405 2189.95 829.958 2190.5C830.25 2190.79 877.244 2170.29 934.389 2144.94C1078.19 2081.14 1069.2 2085.25 1070.32 2082.71C1070.89 2081.41 1072.36 2080.38 1073.89 2080.2C1076.32 2079.92 1099.52 2082.34 1215.79 2095C1283.25 2102.34 1412.35 2116.32 1543.29 2130.45C1607.09 2137.33 1660.98 2143.2 1663.04 2143.49L1666.78 2144.02L1667.16 1666.76C1667.51 1219.39 1667.66 1183.99 1669.6 1101.5C1671.9 1003.79 1673.53 923.503 1680.74 553.5C1683.45 414.35 1685.9 292.512 1686.19 282.75C1686.6 269.156 1686.44 265.024 1685.51 265.101C1684.84 265.156 1673.71 268.266 1660.79 272.012ZM1695.38 285.391C1695.05 295.901 1694.09 340.05 1693.27 383.5C1691.73 464.169 1690.24 540.098 1682.26 942.5C1679.77 1068.45 1677.85 1175.55 1678.01 1180.49L1678.29 1189.48L1706.79 1193.71C1761.4 1201.82 2168.53 1262.13 2201.79 1267.04C2220.21 1269.76 2235.7 1271.99 2236.2 1271.99C2236.75 1272 2236.85 1214.56 2236.46 1128.25C2236.1 1049.19 2235.8 869.055 2235.8 727.955L2235.79 471.41L2005.04 383.71C1878.13 335.475 1772.71 295.491 1770.79 294.856C1768.86 294.222 1764.81 292.67 1761.79 291.409C1758.76 290.147 1742.72 283.978 1726.14 277.698L1696 266.281L1695.38 285.391ZM789.288 441.077C751.773 453.769 165.731 649.677 92.1122 674.136L66.9352 682.5L66.4062 687.5C66.1152 690.25 63.6132 749.875 60.8462 820C58.0792 890.125 52.5892 1027.49 48.6452 1125.26C44.7012 1223.03 41.6582 1303.18 41.8812 1303.37C42.1052 1303.57 57.3632 1302.01 75.7882 1299.92C94.2132 1297.82 155.863 1290.9 212.788 1284.54C269.713 1278.17 344.188 1269.83 378.288 1266C412.388 1262.18 526.884 1249.35 632.723 1237.51C738.562 1225.66 825.338 1215.78 825.558 1215.56C825.928 1215.19 826.827 1158.93 828.235 1048C829.713 931.524 830.764 852.262 831.277 818.5C831.586 798.15 832.714 711.075 833.782 625C834.851 538.925 835.9 458.938 836.113 447.25C836.46 428.214 836.333 426.01 834.894 426.096C834.011 426.148 813.488 432.89 789.288 441.077ZM2328.79 469.976C2326.45 471.453 2326.11 483.74 2325.93 574.863C2325.84 620.713 2325.57 658.548 2325.32 658.941C2325.08 659.334 2324.82 699.612 2324.73 748.448C2324.59 833.677 2324.66 837.312 2326.44 838.99C2328.49 840.927 2449.22 871.45 2452.4 870.836C2456.07 870.13 2456.89 866.321 2456.34 852.5C2456.05 845.35 2455.55 768.4 2455.21 681.5C2454.76 564.962 2454.3 522.867 2453.45 521.087C2452.5 519.109 2441.68 514.197 2393.41 493.837C2361.03 480.177 2333.58 469.007 2332.41 469.015C2331.25 469.024 2329.61 469.456 2328.79 469.976ZM2335.71 499.75C2335.67 510.612 2335.5 520.175 2335.34 521C2335.18 521.825 2334.72 592.305 2334.31 677.622L2333.57 832.745L2389.93 846.752L2446.29 860.76L2446.52 818.63C2446.65 795.458 2446.42 720.037 2446.02 651.026L2445.29 525.551L2433.79 520.685C2367.17 492.496 2337.33 480 2336.63 480C2336.17 480 2335.75 488.888 2335.71 499.75ZM2347.91 530.781C2346.79 532.86 2343.11 799.155 2344.14 803.25C2344.92 806.362 2346.47 806.923 2368.57 812.058C2382.7 815.341 2382.88 815.356 2384.78 813.438C2386.65 811.552 2386.72 807.907 2387.41 678.483C2387.92 581.226 2387.81 544.904 2386.99 543.378C2386.2 541.907 2381.05 539.478 2369.52 535.146C2360.52 531.766 2352.19 529 2351.01 529C2349.83 529 2348.43 529.801 2347.91 530.781ZM2355.8 552.75C2355.8 559.763 2355.08 617.843 2354.2 681.818C2353.32 745.793 2352.83 798.37 2353.11 798.656C2353.62 799.165 2377.16 804.985 2377.42 804.664C2377.49 804.574 2377.87 746.859 2378.27 676.408L2378.99 548.316L2367.86 544.158C2361.73 541.871 2356.51 540 2356.25 540C2356 540 2355.79 545.737 2355.8 552.75ZM2398.36 551.571C2397.04 552.89 2396.79 556.228 2396.78 572.321C2396.76 613.691 2398.87 813.687 2399.36 816.738C2399.64 818.519 2400.69 820.413 2401.69 820.948C2405.18 822.816 2433.16 830.096 2435.71 829.799C2437.32 829.611 2438.68 828.57 2439.35 827C2440.13 825.208 2440.08 791.372 2439.2 707.5C2438.52 643.15 2437.92 584.849 2437.88 577.941C2437.82 569.529 2437.37 564.812 2436.53 563.655C2435.26 561.925 2404.77 550 2401.61 550C2400.69 550 2399.22 550.707 2398.36 551.571ZM2406.13 612.134C2406.49 640.385 2407.08 697.322 2407.44 738.661L2408.09 813.821L2417.69 816.454C2422.97 817.901 2428.15 819.344 2429.2 819.66C2431.07 820.223 2431.09 818.747 2430.44 746.867C2429.55 648.173 2428.58 569.572 2428.25 569.175C2427.93 568.805 2411.53 562.627 2407.88 561.506L2405.48 560.767L2406.13 612.134ZM2517.3 957.278C2517.7 1153.2 2518.11 1313.6 2518.21 1313.72C2518.48 1314.04 2869.17 1365.96 2869.38 1365.71C2869.48 1365.59 2870.28 1252.32 2871.16 1114C2872.04 975.675 2873.05 835.931 2873.41 803.457L2874.05 744.415L2870.67 743.31C2868.81 742.703 2841.64 731.865 2810.29 719.227C2739.61 690.736 2648.07 653.894 2573.43 623.902L2516.57 601.055L2517.3 957.278ZM1433.04 621.3L1421.79 631.423L1421.73 646.962C1421.7 655.508 1421.31 681.4 1420.85 704.5C1420.39 727.6 1420.11 746.599 1420.21 746.72C1420.31 746.841 1425.21 743.962 1431.09 740.321L1441.79 733.702L1441.84 725.601C1441.87 721.145 1442.49 693.65 1443.21 664.5C1443.93 635.35 1444.47 611.427 1444.41 611.339C1444.34 611.25 1439.23 615.733 1433.04 621.3ZM1358.47 646C1331.07 651.391 1308.4 656.058 1308.08 656.371C1307.77 656.684 1306.92 695.316 1306.19 742.22C1305.45 789.124 1304.42 853.814 1303.88 885.975C1303.34 918.137 1303.05 944.591 1303.22 944.762C1303.39 944.934 1321.16 942.329 1342.71 938.973L1381.9 932.873L1393.09 934.953C1399.25 936.098 1405.19 937.229 1406.29 937.467C1408.25 937.892 1408.29 937.323 1408.5 906.7C1408.62 889.54 1409.22 847.446 1409.83 813.157C1410.44 778.869 1410.76 750.64 1410.55 750.426C1410.33 750.212 1395.26 753.266 1377.06 757.212L1343.95 764.387L1343.38 774.444C1343.07 779.975 1342.09 818.25 1341.2 859.5C1339.49 938.613 1339.46 939 1334.97 939C1333.99 939 1332.65 938.46 1331.99 937.8C1330.5 936.308 1330.45 920.606 1331.77 871C1332.31 850.925 1333.43 804.125 1334.26 767C1336.5 666.41 1336.56 665.196 1339.15 663.507C1340.33 662.74 1357.26 657.407 1376.79 651.656C1411.12 641.543 1412.3 641.115 1412.6 638.6C1412.87 636.435 1412.53 636.017 1410.6 636.1C1409.33 636.154 1385.87 640.61 1358.47 646ZM1890.54 639.25C1889.08 640.368 1888.64 651.135 1886.37 741.5C1884.97 797.05 1883.6 849.7 1883.31 858.5C1883.01 867.3 1882.34 893.85 1881.8 917.5C1881.26 941.15 1880.56 965.908 1880.24 972.518C1879.63 985.246 1880.39 989.422 1883.51 990.412C1887.39 991.644 2034.06 1021 2036.34 1021C2041.79 1021 2041.49 1027.62 2042.68 878.5C2043.29 802.6 2043.9 727.533 2044.04 711.684C2044.28 683.787 2044.22 682.831 2042.29 681.698C2040.69 680.764 1894.78 638.167 1892.73 638.036C1892.42 638.016 1891.44 638.563 1890.54 639.25ZM1897.46 667.232C1897.1 677.279 1896.52 699.916 1896.15 717.536L1895.49 749.572L1916.24 755.353C1927.65 758.533 1937.28 760.842 1937.64 760.484C1938 760.127 1938.6 740.859 1938.99 717.667C1939.37 694.475 1939.83 672.235 1940.01 668.244C1940.26 662.422 1940.03 660.901 1938.81 660.546C1937.97 660.302 1929.19 657.807 1919.29 655C1909.39 652.193 1900.57 649.687 1899.69 649.43C1898.29 649.02 1898.02 651.164 1897.46 667.232ZM1377.9 660.583C1360.64 665.732 1346.36 670.094 1346.18 670.278C1345.66 670.793 1343.56 754.107 1344.05 754.597C1344.43 754.973 1409.89 741.162 1410.53 740.571C1410.67 740.448 1411.01 728.906 1411.29 714.923C1411.57 700.941 1412.02 680.837 1412.29 670.25C1412.74 652.39 1412.65 651.008 1411.03 651.111C1410.07 651.172 1395.16 655.435 1377.9 660.583ZM937.15 659.405L927.012 665.5L926.414 679.5C926.085 687.2 925.527 713.909 925.174 738.854C924.549 783.024 924.581 784.181 926.41 783.183C927.443 782.619 931.509 779.76 935.446 776.829C939.383 773.898 943.401 771.021 944.376 770.435C946.023 769.445 946.202 765.327 946.934 711.486C947.367 679.649 947.624 653.535 947.505 653.455C947.386 653.375 942.726 656.053 937.15 659.405ZM1240.79 659.56C1227.31 660.257 1214.2 660.866 1211.65 660.914L1207.01 661L1206.39 681.75C1206.05 693.163 1205.56 707 1205.3 712.5C1205.05 718 1204.53 735.511 1204.16 751.414L1203.49 780.328L1229.89 779.666C1244.41 779.302 1261.08 779.003 1266.94 779.002L1277.58 779L1278.16 765.75C1278.47 758.462 1278.97 731.237 1279.27 705.25L1279.82 658L1272.55 658.146C1268.56 658.227 1254.26 658.863 1240.79 659.56ZM1948.31 710.25C1947.92 735.688 1947.75 758.267 1947.94 760.426L1948.29 764.353L1970.72 770.663C1983.06 774.133 1993.24 776.867 1993.35 776.736C1993.46 776.606 1993.94 754.097 1994.42 726.716L1995.29 676.933L1988.79 675.025C1973.87 670.648 1950.29 664 1949.68 664C1949.32 664 1948.7 684.813 1948.31 710.25ZM2004.43 685.669C2004.11 688.876 2003.56 711.316 2003.21 735.536L2002.57 779.572L2017.5 783.786C2025.71 786.104 2032.96 788 2033.61 788C2034.5 788 2034.79 775.804 2034.79 738.137V688.273L2022.54 684.695C2003.03 678.996 2005.1 678.885 2004.43 685.669ZM1083.29 691.857L1059.29 695.5L1059.05 705.5C1058.05 746.699 1057.03 809.572 1057.35 809.899C1057.69 810.238 1098.99 804.942 1108.42 803.351L1111.54 802.823L1112.19 755.162C1112.54 728.948 1113.09 703.112 1113.41 697.75L1113.99 688L1110.64 688.107C1108.8 688.167 1096.49 689.854 1083.29 691.857ZM956.434 694.275C955.783 696.867 955.446 772.991 956.082 773.627C956.294 773.84 967.678 776.253 981.378 778.99C995.079 781.727 1007.3 784.207 1008.54 784.502L1010.79 785.038V744.268V703.497L985.038 698.092C970.876 695.118 958.781 692.505 958.161 692.283C957.542 692.062 956.764 692.958 956.434 694.275ZM524.988 699.2C524.184 700.004 523.783 704.541 523.773 712.95C523.764 719.852 523.418 726.034 523.002 726.687C522.037 728.205 517.341 730 514.335 730C513.057 730 508.024 731.141 503.15 732.535C498.276 733.929 491.893 735.751 488.967 736.584C480.253 739.062 480.426 737.922 481.157 788C481.498 811.375 482.059 878.65 482.404 937.5C482.748 996.35 483.425 1045.26 483.908 1046.18C484.391 1047.11 485.674 1048.15 486.76 1048.49C488.906 1049.17 553.961 1037.51 556.956 1035.91C557.964 1035.37 558.788 1033.9 558.788 1032.64C558.788 1030.7 559.219 1030.41 561.561 1030.75C563.417 1031.03 564.912 1030.52 566.084 1029.23C567.657 1027.49 567.93 1023.14 568.77 986.395C569.285 963.903 569.963 935.15 570.277 922.5C573.789 781.188 574.78 719.621 573.571 717.808C572.197 715.747 531.73 698.098 528.238 698.036C527.11 698.016 525.648 698.54 524.988 699.2ZM532.788 715.089C532.788 720.721 530.066 786.914 529.434 796.651L529.034 802.801L546.05 809.428C555.409 813.073 563.188 815.931 563.337 815.778C563.596 815.513 565.288 739.436 565.288 728.069V722.638L550.288 716.349C542.038 712.89 534.726 710.047 534.038 710.03C533.198 710.01 532.788 711.668 532.788 715.089ZM382.683 735.25C379.234 738.148 378.924 743.101 377.866 812C377.288 849.675 376.588 891.525 376.311 905C376.033 918.475 375.504 955.553 375.135 987.395C374.491 1043.03 374.537 1045.34 376.317 1046.65C379.058 1048.65 473.527 1048.64 476.269 1046.64C477.995 1045.38 478.119 1043.71 477.957 1023.89C477.862 1012.12 477.563 994.4 477.294 984.5C477.025 974.6 476.571 953.675 476.285 938C473.634 792.756 472.495 743.359 471.75 741.401C471.16 739.85 469.812 738.936 467.583 738.578C464.983 738.159 389.478 733.954 385.229 733.991C384.647 733.996 383.501 734.563 382.683 735.25ZM505.835 744.605C497.886 747.575 491.112 750.342 490.781 750.753C490.21 751.461 491.74 1038.15 492.318 1038.82C492.469 1038.99 505.452 1036.77 521.17 1033.88C536.888 1030.99 549.645 1028.52 549.518 1028.4C549.392 1028.27 542.088 1026.52 533.288 1024.51C512.784 1019.82 513.974 1020.21 512.279 1017.63C510.994 1015.66 511.46 1000.49 516.246 888.452C519.229 818.628 521.954 756.438 522.301 750.25C522.807 741.245 522.669 739.02 521.61 739.103C520.883 739.159 513.784 741.635 505.835 744.605ZM387.309 790.039C386.9 815.929 386.734 837.279 386.939 837.484C387.47 838.015 464.728 840.421 465.07 839.917C465.36 839.491 463.755 747.595 463.454 747.383C463.363 747.319 448.438 746.525 430.288 745.62C412.138 744.715 395.21 743.748 392.669 743.47L388.051 742.966L387.309 790.039ZM1430.29 751.382L1420.29 757.71L1420.03 763.105C1419.56 772.649 1418.08 861.487 1418.38 861.856C1418.54 862.052 1423.14 859.843 1428.61 856.947L1438.55 851.683L1439.16 839.092C1439.49 832.166 1440.01 810.525 1440.31 791C1440.61 771.475 1441.09 753.138 1441.39 750.25C1441.69 747.362 1441.56 745.012 1441.11 745.027C1440.66 745.042 1435.79 747.902 1430.29 751.382ZM1894.46 781.25C1894.1 793.487 1893.51 817.675 1893.15 835L1892.48 866.5L1913.71 871.343C1925.38 874.007 1935.24 875.882 1935.61 875.51C1936.35 874.769 1937.97 795.256 1937.55 780.044L1937.29 770.589L1916.79 764.822C1905.51 761.651 1896.02 759.044 1895.7 759.028C1895.37 759.013 1894.81 769.013 1894.46 781.25ZM1946.45 813.164C1946.09 834.704 1945.79 858.257 1945.79 865.504V878.68L1968.03 883.765C1980.26 886.561 1990.47 888.649 1990.72 888.403C1991.22 887.902 1992.61 828.395 1992.72 802.87L1992.79 786.24L1970.98 780.12C1958.98 776.754 1948.7 774 1948.14 774C1947.47 774 1946.88 787.535 1946.45 813.164ZM934.581 788.333C926.787 794.087 924.776 796.091 924.381 798.5C924.11 800.15 923.619 822.341 923.288 847.812L922.687 894.125L924.746 893.023C925.878 892.416 930.289 889.689 934.546 886.96C938.804 884.232 942.778 882 943.376 882C944.125 882 944.671 871.667 945.126 848.837C945.996 805.265 945.964 780.981 945.038 781.083C944.626 781.129 939.92 784.391 934.581 788.333ZM954.81 795.75C954.822 802.763 954.294 851.135 953.637 903.244C952.98 955.353 952.748 998.293 953.121 998.666C953.493 999.039 966.059 997.457 981.043 995.15C996.028 992.844 1008.51 990.967 1008.79 990.979C1009.06 990.991 1009.29 985.489 1009.29 978.751C1009.29 972.013 1009.67 927.688 1010.13 880.25C1010.59 832.813 1010.8 794 1010.58 794C1010.36 794 997.856 791.525 982.788 788.5C967.72 785.475 955.255 783 955.089 783C954.924 783 954.798 788.737 954.81 795.75ZM1226.79 788.972L1203.29 789.5L1203 796C1202.29 811.914 1200.1 891.536 1200.37 891.855C1200.63 892.168 1276.05 889.962 1276.44 889.63C1276.52 889.559 1276.92 866.662 1277.33 838.75L1278.06 788L1264.18 788.222C1256.54 788.344 1239.71 788.682 1226.79 788.972ZM2001.17 840.014C2000.39 885.005 2000.47 891.079 2001.79 891.468C2002.61 891.71 2009.36 893.291 2016.79 894.981C2024.21 896.671 2031.08 898.298 2032.05 898.597C2033.71 899.112 2033.79 896.431 2033.55 848.376L2033.29 797.612L2018.29 793.344C2010.04 790.996 2003.01 789.059 2002.67 789.038C2002.33 789.017 2001.66 811.956 2001.17 840.014ZM1083.87 815.957C1069.34 817.906 1057.31 819.95 1057.15 820.5C1056.81 821.65 1054.85 917.393 1055.17 917.708C1055.28 917.823 1067.56 916.728 1082.46 915.275L1109.56 912.635L1110.26 868.567C1110.65 844.33 1110.81 821.781 1110.63 818.457L1110.29 812.414L1083.87 815.957ZM528.744 814.75C528.719 815.712 527.864 834.95 526.844 857.5C525.823 880.05 525.28 898.77 525.638 899.101C526.779 900.156 560.624 911.498 561.111 910.989C561.368 910.72 561.891 891.375 562.273 868L562.968 825.5L546.628 819.246C537.641 815.806 529.95 812.994 529.538 812.996C529.126 812.998 528.768 813.788 528.744 814.75ZM386.379 857.25C386.048 862.888 385.667 881.085 385.533 897.689L385.288 927.877L392.288 928.45C396.138 928.764 412.338 929.69 428.288 930.506C444.238 931.322 459.485 932.202 462.169 932.463L467.05 932.937L466.317 891.718C465.913 869.048 465.369 850.277 465.107 850.004C464.728 849.611 409.508 847.427 391.134 847.079L386.98 847L386.379 857.25ZM1427.7 867.612L1418.11 873.012L1417.42 904.69C1416.99 924.477 1416.33 936.846 1415.67 937.643C1414.87 938.602 1415.19 939.046 1416.95 939.438C1420.35 940.195 1435.9 943.001 1436.65 942.994C1437 942.991 1437.39 933.878 1437.51 922.744C1437.64 911.61 1438.02 893.388 1438.36 882.25C1438.7 871.112 1438.6 862.048 1438.13 862.106C1437.67 862.164 1432.97 864.642 1427.7 867.612ZM2619.87 876.923C2617.98 878.805 2617.79 880.194 2617.76 891.75C2617.75 898.763 2617.32 929.925 2616.82 961C2615.7 1029.61 2614.29 1133.04 2614.29 1145.83C2614.29 1157.03 2614.45 1157.21 2625.51 1158.8C2629.79 1159.41 2651.66 1162.66 2674.11 1166C2696.55 1169.35 2715.79 1171.82 2716.86 1171.48C2717.92 1171.14 2719.22 1170.06 2719.75 1169.07C2720.36 1167.93 2720.38 1147.48 2719.8 1112.89C2719.3 1082.98 2718.58 1032.4 2718.2 1000.5C2717.82 968.6 2717.38 941.825 2717.22 941C2717.07 940.175 2716.91 931.963 2716.87 922.75C2716.8 908.072 2716.57 905.779 2715 904.216C2713.94 903.152 2695.29 897.053 2668.79 889.102C2644.35 881.771 2623.82 875.564 2623.15 875.309C2622.49 875.054 2621.01 875.78 2619.87 876.923ZM1891.45 898.25C1891.1 910.487 1890.5 934.486 1890.14 951.579L1889.47 982.658L1911.15 986.973C1923.08 989.346 1933.16 990.961 1933.56 990.562C1934.61 989.512 1936.16 886.965 1935.14 886.01C1934.41 885.329 1895.01 876 1892.86 876C1892.45 876 1891.81 886.013 1891.45 898.25ZM2626.45 925.233C2625.16 1002.42 2624.29 1078.08 2624.29 1113.45V1149.4L2667.59 1155.81C2691.41 1159.34 2711.01 1162.06 2711.14 1161.86C2711.47 1161.38 2707.76 910.637 2707.42 910.295C2707.27 910.148 2689.86 904.839 2668.72 898.497C2647.58 892.155 2629.57 886.741 2628.7 886.466C2627.27 886.017 2627.04 889.976 2626.45 925.233ZM1944.79 901.25C1944.79 908.537 1944.49 932.275 1944.13 954L1943.47 993.5L1966.02 998.02L1988.56 1002.54L1989.17 982.52C1990.53 937.469 1991 897.999 1990.17 897.987C1989.68 897.979 1979.61 895.73 1967.79 892.989C1955.96 890.247 1945.95 888.003 1945.54 888.002C1945.13 888.001 1944.79 893.963 1944.79 901.25ZM933.788 897.954L923.288 904.616L922.656 912.058C922.309 916.151 921.747 938.513 921.409 961.75C920.829 1001.53 920.895 1004 922.541 1004C925.655 1003.99 941.986 1001.14 942.637 1000.48C943.17 999.952 944.984 891.744 944.466 891.407C944.368 891.343 939.563 894.289 933.788 897.954ZM1230.14 900.291L1200 901.237L1199.4 920.869C1199.06 931.666 1198.57 945.112 1198.3 950.75C1197.93 958.499 1198.11 961.005 1199.05 961.022C1201.8 961.072 1274.33 949.689 1274.91 949.116C1275.25 948.777 1275.81 937.362 1276.15 923.75L1276.77 899L1268.53 899.172C1264 899.267 1246.72 899.77 1230.14 900.291ZM1999.36 940.75C1998.99 962.612 1998.6 985.9 1998.49 992.5L1998.29 1004.5L2015.05 1007.91C2024.27 1009.78 2032.02 1011.1 2032.27 1010.86C2032.52 1010.61 2032.77 987.249 2032.83 958.951C2032.93 909.883 2032.85 907.486 2031.11 907.204C2030.11 907.041 2023.36 905.578 2016.1 903.954C2008.85 902.329 2002.27 901 2001.47 901C2000.24 901 1999.92 907.008 1999.36 940.75ZM524.726 909.75C524.254 915.455 520.211 1011.61 520.431 1011.89C520.846 1012.42 558.204 1020.92 558.561 1020.56C558.925 1020.2 560.728 948.271 560.762 932.719C560.781 924.161 560.446 920.825 559.538 920.526C558.851 920.299 551.105 917.613 542.326 914.557C525.662 908.755 524.827 908.527 524.726 909.75ZM1079.32 924.676C1066.13 926.015 1055.27 927.199 1055.19 927.306C1055.11 927.412 1054.71 939.987 1054.32 955.25C1053.64 981.391 1053.71 983 1055.37 983C1057.28 983 1108.04 974.084 1108.44 973.677C1108.58 973.542 1108.82 961.859 1108.99 947.715L1109.29 921.998L1106.29 922.119C1104.64 922.186 1092.5 923.336 1079.32 924.676ZM384.449 973.216C384.086 993.077 383.788 1016 383.788 1024.16V1039H426.385H468.983L468.304 991.75C467.931 965.763 467.405 943.706 467.135 942.735C466.865 941.765 466.315 941.174 465.914 941.422C465.247 941.835 405.492 938.783 391.199 937.606L385.11 937.105L384.449 973.216ZM1323.79 951.03C1276.4 958.484 1144.66 978.987 1021.29 998.109C989.388 1003.05 953.388 1008.65 941.288 1010.53C929.188 1012.42 901.288 1016.74 879.288 1020.11C857.288 1023.49 838.954 1026.56 838.546 1026.92C838.139 1027.29 837.361 1061.09 836.817 1102.04C836.274 1142.99 835.647 1187.19 835.423 1200.25C835.056 1221.74 835.173 1224 836.652 1223.99C837.552 1223.99 846.838 1223.32 857.288 1222.5C873.818 1221.21 1004.32 1211.11 1290.66 1188.98C1333.22 1185.69 1368.83 1183 1369.81 1183C1371.38 1183 1371.65 1181.6 1372.17 1170.75C1372.48 1164.01 1373 1142.98 1373.31 1124C1373.62 1105.02 1374.52 1057.33 1375.32 1018C1376.12 978.675 1376.77 945.713 1376.78 944.75C1376.78 943.7 1376.09 943.049 1375.04 943.122C1374.08 943.189 1351.01 946.748 1323.79 951.03ZM1385.79 948.299C1385.79 956.671 1382.94 1102.27 1382.33 1125C1381.69 1149.03 1381.47 1182.03 1381.95 1182.47C1382.59 1183.07 1612.81 1213.31 1613.26 1212.86C1613.51 1212.61 1615.58 1168.33 1617.86 1114.45C1621.16 1036.52 1622.3 1016.03 1623.44 1014.22C1624.23 1012.96 1626.21 1011.67 1627.83 1011.34L1630.79 1010.75V999.375C1630.79 992.496 1630.4 988 1629.79 988C1628.9 988 1524.42 968.69 1423.96 949.959C1403.44 946.132 1386.45 943 1386.21 943C1385.98 943 1385.79 945.385 1385.79 948.299ZM2322.79 1097.29C2321.41 1097.99 2319.79 1099.67 2319.17 1101.03C2318.4 1102.75 2317.38 1157.96 2315.81 1283.85C2313.58 1462.21 2313.57 1464.23 2315.49 1466.14C2317.25 1467.9 2323.28 1468.53 2381.86 1473.04C2417.29 1475.76 2448.42 1478 2451.02 1478C2454.83 1478 2456.01 1477.57 2457.15 1475.75C2458.34 1473.85 2458.66 1446.67 2459.22 1300.42C2459.86 1134.13 2459.82 1127.26 2458.07 1125.1C2456.47 1123.12 2448.52 1121.28 2390.77 1109.45C2354.76 1102.07 2325.29 1096.03 2325.29 1096.03C2325.29 1096.03 2324.16 1096.6 2322.79 1097.29ZM2327.45 1108.19C2327.14 1109.39 2326.85 1127.6 2326.81 1148.66C2326.77 1169.72 2326.57 1187.52 2326.35 1188.22C2326.13 1188.93 2325.69 1216.5 2325.36 1249.5C2325.03 1282.5 2324.29 1342.95 2323.7 1383.84C2323.12 1424.73 2322.91 1458.45 2323.23 1458.78C2323.81 1459.35 2448.93 1469.24 2449.33 1468.74C2449.44 1468.61 2449.77 1392.56 2450.06 1299.74L2450.6 1130.99L2448.44 1130.49C2445.95 1129.91 2328.59 1106 2328.25 1106C2328.12 1106 2327.76 1106.98 2327.45 1108.19ZM2340.95 1156.75C2340.43 1157.75 2339.73 1215.37 2339.32 1292.16C2338.49 1447.27 2336.99 1429.42 2350.94 1430.38C2378.12 1432.27 2382.25 1432.26 2384.67 1430.3L2386.98 1428.43L2387.52 1297.46C2388.05 1168.82 2388.03 1166.46 2386.12 1164.13C2384.43 1162.07 2381.73 1161.33 2365.23 1158.4C2343.21 1154.5 2342.16 1154.43 2340.95 1156.75ZM2348.75 1268.25C2348.72 1325.04 2348.45 1382.64 2348.14 1396.25L2347.57 1421L2349.93 1421.1C2351.23 1421.15 2358.03 1421.49 2365.04 1421.85L2377.79 1422.5L2377.8 1383.5C2377.8 1362.05 2378.09 1305.24 2378.46 1257.25C2378.82 1209.26 2378.9 1170 2378.65 1170C2378.39 1170 2371.91 1168.88 2364.24 1167.5C2356.57 1166.13 2349.95 1165.01 2349.54 1165C2349.13 1165 2348.77 1211.46 2348.75 1268.25ZM2399.52 1168.41C2397.8 1170.13 2396.79 1240 2396.79 1357.01C2396.79 1430.07 2396.85 1432.75 2398.69 1434.41C2400.23 1435.81 2404.09 1436.33 2419.44 1437.24C2429.81 1437.85 2439.47 1438.05 2440.92 1437.68C2442.48 1437.29 2443.8 1436.1 2444.16 1434.76C2444.86 1432.19 2443.93 1181.18 2443.21 1176.36C2442.58 1172.18 2440.75 1171.57 2421.29 1169.06C2402.32 1166.61 2401.35 1166.58 2399.52 1168.41ZM2406.45 1261.17C2406.09 1307.46 2405.79 1363.66 2405.79 1386.07V1426.81L2410.54 1427.37C2413.15 1427.68 2419.79 1428.21 2425.3 1428.56L2435.31 1429.18L2434.95 1304.84C2434.75 1236.45 2434.51 1180.43 2434.43 1180.34C2434.15 1180.03 2411.33 1177 2409.24 1177H2407.12L2406.45 1261.17ZM1373.79 1191.74C1370.79 1192.06 1162.5 1208.17 928.07 1226.21C890.551 1229.1 860.176 1231.75 860.57 1232.09C860.965 1232.44 906.018 1240.06 960.688 1249.02L1060.09 1265.33L1101.19 1261.64C1164.51 1255.96 1319.87 1242.08 1438.29 1231.52C1497.14 1226.27 1552.46 1221.31 1561.23 1220.49C1569.99 1219.67 1578.09 1218.96 1579.23 1218.92C1580.36 1218.88 1580.84 1218.66 1580.29 1218.44C1579.35 1218.07 1493.99 1206.66 1416.29 1196.53C1397.04 1194.01 1380.39 1191.83 1379.29 1191.67C1378.19 1191.51 1375.71 1191.54 1373.79 1191.74ZM642.288 1245.58C472.222 1264.72 306.445 1283.31 121.416 1303.98C77.4862 1308.89 41.4342 1313.04 41.3002 1313.21C41.0532 1313.5 40.1192 1335.75 34.7642 1469C27.9992 1637.33 26.7172 1669.13 25.2882 1704C23.8742 1738.49 22.0892 1782.61 12.8472 2011.5C10.7152 2064.3 9.04218 2107.55 9.12918 2107.6C9.21718 2107.66 189.963 2126.7 410.788 2149.92C631.613 2173.14 813.922 2192.38 815.92 2192.68L819.551 2193.22L820.147 2158.86C820.475 2139.96 821.203 2010.2 821.766 1870.5C822.329 1730.8 823.013 1585.45 823.286 1547.5C823.559 1509.55 824.021 1424.28 824.311 1358C824.602 1291.72 825.106 1234.69 825.431 1231.25C825.897 1226.32 825.733 1225.02 824.654 1225.11C823.903 1225.17 741.838 1234.38 642.288 1245.58ZM1350.61 1371.93C1303.46 1375.47 1287.52 1376.98 1286.23 1378.05C1284.63 1379.38 1284.56 1387.64 1285.24 1511.48C1285.87 1627.49 1286.14 1643.79 1287.49 1645.89L1289.02 1648.29L1304.65 1647.57C1313.25 1647.18 1344.55 1645.39 1374.19 1643.6L1428.1 1640.34L1430.05 1637.92C1431.91 1635.63 1431.97 1634.36 1431.36 1612.01C1431.01 1599.08 1429.81 1540.21 1428.71 1481.2C1427.49 1415.97 1426.3 1372.85 1425.68 1371.22C1425.12 1369.75 1424.13 1368.2 1423.48 1367.79C1421.7 1366.66 1418.53 1366.84 1350.61 1371.93ZM1388.29 1378.39L1360.29 1380.5L1360.03 1507.75L1359.78 1635L1364.03 1634.91C1366.37 1634.87 1380.44 1634.08 1395.29 1633.16L1422.29 1631.5L1421.98 1612.5C1421.81 1602.05 1420.8 1547.38 1419.74 1491C1418.67 1434.62 1417.8 1385.69 1417.79 1382.25C1417.79 1378.81 1417.45 1376.06 1417.04 1376.14C1416.63 1376.21 1403.69 1377.22 1388.29 1378.39ZM1325.29 1383.06C1313.19 1384.03 1301.13 1384.87 1298.48 1384.91L1293.68 1385L1294.37 1511.75C1294.75 1581.46 1295.17 1638.64 1295.32 1638.81C1295.46 1638.98 1306.92 1638.42 1320.79 1637.56C1334.66 1636.7 1346.86 1636 1347.9 1636C1349.74 1636 1349.79 1632.86 1349.79 1508.5C1349.79 1407.09 1349.53 1381.03 1348.54 1381.14C1347.85 1381.22 1337.39 1382.08 1325.29 1383.06ZM1886.71 1383.92C1884.29 1386.34 1883.79 1387.68 1883.78 1391.67C1883.78 1396.29 1881.53 1504.48 1880.29 1560C1879.06 1615.17 1876.81 1723.69 1876.8 1728.25C1876.79 1731.67 1877.35 1733.56 1878.79 1735C1880.75 1736.97 1882.12 1737 1959.73 1737C2038.12 1737 2038.69 1736.99 2040.11 1734.95C2041.34 1733.2 2041.48 1711.82 2041.14 1582.2C2040.93 1499.32 2040.48 1423.26 2040.16 1413.18C2039.57 1395.09 2039.54 1394.86 2037.2 1393.97C2035.13 1393.18 1899.01 1381 1892.26 1381C1890.69 1381 1888.46 1382.18 1886.71 1383.92ZM903.914 1383.87C902.151 1385.64 902.002 1388.64 901.407 1434.12C901.06 1460.73 900.262 1565.67 899.635 1667.32C898.608 1833.75 898.648 1852.29 900.041 1853.68C901.438 1855.08 906.501 1855.07 951.938 1853.57C1056.56 1850.12 1053.5 1850.33 1055.6 1846.3C1056.2 1845.16 1055.87 1829.35 1054.71 1803C1053.09 1766.4 1052.87 1739.77 1052.83 1577.37C1052.79 1410.83 1052.64 1393.12 1051.21 1391.93C1050.06 1390.98 1030.68 1389.46 979.958 1386.36C941.64 1384.01 909.275 1382.07 908.038 1382.05C906.801 1382.02 904.945 1382.84 903.914 1383.87ZM1892.79 1395.78C1892.79 1406.03 1886.94 1688.57 1886.31 1708.75L1885.71 1728H1920.26H1954.82L1954.31 1671.25C1954.02 1640.04 1953.56 1565.25 1953.27 1505.06C1952.98 1444.87 1952.65 1395.53 1952.52 1395.41C1952.39 1395.29 1941.26 1394.25 1927.79 1393.11C1914.31 1391.96 1900.93 1390.76 1898.04 1390.44L1892.79 1389.86V1395.78ZM910.73 1423.48C910.698 1441.09 910.498 1458.42 910.285 1462C910.073 1465.58 909.649 1521.15 909.342 1585.5C909.035 1649.85 908.489 1734.85 908.127 1774.38L907.469 1846.27L914.878 1845.66C918.954 1845.32 933.949 1844.75 948.201 1844.39L974.114 1843.73L973.453 1759.11C973.089 1712.58 972.518 1628.83 972.184 1573C971.849 1517.17 971.432 1470.6 971.256 1469.5C971.08 1468.4 970.903 1451.23 970.862 1431.35L970.788 1395.19L960.538 1394.51C954.9 1394.13 941.4 1393.29 930.538 1392.64L910.788 1391.45L910.73 1423.48ZM980.231 1455.75C980.541 1488.61 981.015 1538.45 981.285 1566.5C981.555 1594.55 982.074 1668.3 982.44 1730.38L983.105 1843.26L1006.2 1842.61C1018.9 1842.25 1033.23 1841.68 1038.04 1841.35L1046.79 1840.74L1046.77 1834.62C1046.75 1831.25 1046.09 1813.65 1045.28 1795.5C1044.13 1769.47 1043.82 1724.14 1043.81 1580.97L1043.79 1399.44L1014.04 1397.69C997.676 1396.73 983.248 1395.96 981.978 1395.97L979.668 1396L980.231 1455.75ZM1962.43 1482.75C1962.64 1530.46 1963.09 1605.16 1963.42 1648.75L1964.03 1728H1998.26H2032.49L2032.15 1689.75C2031.96 1668.71 2031.63 1595.57 2031.42 1527.21C2031.21 1458.85 2030.8 1402.68 2030.52 1402.4C2030.14 1402.02 1967.83 1396.16 1962.67 1396.02C1962.33 1396.01 1962.22 1435.04 1962.43 1482.75ZM517.288 1404.08C502.438 1405.08 481.288 1406.35 470.288 1406.91C447.736 1408.06 444.76 1408.62 443.149 1412.06C442.299 1413.88 442.24 1450.54 442.916 1556C443.415 1633.82 444.06 1698.96 444.349 1700.74C444.749 1703.21 445.511 1704.14 447.526 1704.65C451.53 1705.65 553.155 1701.41 555.53 1700.14C556.637 1699.54 557.72 1698.03 557.936 1696.78C558.153 1695.53 557.787 1643.2 557.124 1580.5C556.461 1517.8 555.776 1452.63 555.603 1435.67C555.305 1406.5 555.183 1404.76 553.347 1403.42C551.074 1401.76 552.025 1401.74 517.288 1404.08ZM530.288 1412.51C529.738 1412.7 523.487 1413.16 516.398 1413.54L503.507 1414.22L504.14 1435.86C504.488 1447.76 505.014 1475.95 505.31 1498.5C505.605 1521.05 506.103 1542.83 506.417 1546.9L506.987 1554.3L519.637 1553.65C526.595 1553.3 535.845 1553.01 540.192 1553L548.096 1553L547.44 1524.25C547.08 1508.44 546.712 1479.08 546.623 1459C546.534 1438.92 546.267 1420.14 546.028 1417.25L545.595 1412L538.441 1412.08C534.507 1412.12 530.838 1412.32 530.288 1412.51ZM483.696 1415.43C483.462 1415.66 476.75 1416.09 468.779 1416.38C460.809 1416.66 453.726 1416.92 453.038 1416.95C452.051 1416.99 451.788 1431.38 451.788 1485.44C451.788 1523.08 452.154 1554.11 452.602 1554.39C453.05 1554.66 463.246 1554.62 475.26 1554.28L497.103 1553.68L496.44 1512.09C496.076 1489.21 495.484 1458.01 495.125 1442.75L494.472 1415H489.297C486.45 1415 483.93 1415.19 483.696 1415.43ZM2612.24 1450.41C2610.78 1451.48 2610.61 1454.43 2610.74 1476.47C2610.81 1490.15 2611.03 1501.6 2611.21 1501.92C2611.39 1502.24 2611.86 1553.35 2612.24 1615.5C2612.62 1677.65 2613.19 1729.54 2613.49 1730.82C2613.79 1732.1 2615.11 1733.55 2616.41 1734.05C2619.61 1735.26 2713.05 1731.47 2715.76 1730.01C2716.88 1729.42 2717.83 1728.16 2717.87 1727.21C2718.18 1721.1 2717.67 1630.62 2717.29 1622.5C2717.03 1617 2716.55 1579.03 2716.22 1538.12C2715.89 1497.2 2715.38 1463.1 2715.09 1462.34C2714.79 1461.57 2713.7 1460.49 2712.67 1459.93C2711.63 1459.38 2690.64 1456.93 2666.03 1454.49C2641.42 1452.05 2619.62 1449.87 2617.59 1449.63C2615.56 1449.4 2613.15 1449.75 2612.24 1450.41ZM2620.22 1486.15C2620.79 1514.45 2621.76 1634.82 2621.87 1692.25L2621.94 1725H2631.71C2637.08 1725 2646.33 1724.7 2652.27 1724.34L2663.06 1723.68L2662.33 1593.59C2661.93 1522.04 2661.53 1463.43 2661.44 1463.35C2661.36 1463.26 2654.09 1462.48 2645.29 1461.6C2636.49 1460.72 2627.13 1459.73 2624.48 1459.4L2619.67 1458.8L2620.22 1486.15ZM2671.79 1593.65V1723.52L2680.04 1723.25C2684.58 1723.1 2692.9 1722.72 2698.54 1722.4L2708.79 1721.81L2708.81 1705.15C2708.86 1653.24 2706.37 1468.41 2705.61 1467.92C2705.12 1467.6 2698.32 1466.77 2690.5 1466.08C2682.68 1465.39 2675.28 1464.59 2674.04 1464.31L2671.79 1463.78V1593.65ZM520.887 1562.78L506.486 1563.06L507.132 1594.28C507.487 1611.45 508.073 1640.89 508.434 1659.7L509.09 1693.91L520.689 1693.42C527.069 1693.15 536.001 1692.68 540.538 1692.38L548.788 1691.82L548.787 1665.16C548.786 1650.5 548.488 1621.28 548.124 1600.22L547.462 1561.95L541.375 1562.22C538.027 1562.38 528.808 1562.62 520.887 1562.78ZM464.431 1563.78L451.574 1564.06L452.15 1570.78C452.466 1574.48 452.74 1604.2 452.757 1636.84L452.788 1696.18L466.038 1695.57C473.325 1695.24 483.969 1694.7 489.689 1694.37L500.09 1693.79L499.446 1667.64C499.092 1653.26 498.503 1623.82 498.138 1602.2L497.475 1562.91L487.381 1563.2C481.83 1563.37 471.502 1563.63 464.431 1563.78Z" />
</svg>